<?xml version="1.0" encoding="UTF-8"?>
<svg xmlns="http://www.w3.org/2000/svg" xmlns:xlink="http://www.w3.org/1999/xlink" width="49pt" height="19pt" viewBox="0 0 49 19" version="1.1">
<defs>
<clipPath id="clip1">
  <path d="M 32.054688 1 L 42.582031 1 L 42.582031 11.292969 L 32.054688 11.292969 Z M 32.054688 1 "/>
</clipPath>
<clipPath id="clip2">
  <path d="M 41.777344 2.722656 C 40.25 0.648438 37.015625 0.507812 34.554688 2.410156 C 32.089844 4.3125 31.332031 7.539062 32.855469 9.617188 C 34.382812 11.695312 37.617188 11.835938 40.078125 9.933594 C 42.542969 8.027344 43.304688 4.800781 41.777344 2.722656 Z M 41.777344 2.722656 "/>
</clipPath>
<clipPath id="clip3">
  <path d="M 26.574219 5.140625 L 39.300781 -4.699219 L 48.109375 7.289062 L 35.382812 17.125 Z M 26.574219 5.140625 "/>
</clipPath>
<clipPath id="clip4">
  <path d="M 41.777344 2.722656 C 40.25 0.648438 37.015625 0.507812 34.554688 2.410156 C 32.089844 4.3125 31.332031 7.539062 32.855469 9.617188 C 34.382812 11.695312 37.617188 11.835938 40.078125 9.933594 C 42.542969 8.027344 43.304688 4.800781 41.777344 2.722656 Z M 41.777344 2.722656 "/>
</clipPath>
<clipPath id="clip5">
  <path d="M 30.117188 5.941406 L 39.03125 -0.949219 L 44.5625 6.582031 L 35.652344 13.46875 Z M 30.117188 5.941406 "/>
</clipPath>
<clipPath id="clip6">
  <path d="M 32.054688 1 L 42.582031 1 L 42.582031 11.292969 L 32.054688 11.292969 Z M 32.054688 1 "/>
</clipPath>
<clipPath id="clip7">
  <path d="M 41.777344 2.722656 C 40.25 0.648438 37.015625 0.507812 34.554688 2.410156 C 32.089844 4.3125 31.332031 7.539062 32.855469 9.617188 C 34.382812 11.695312 37.617188 11.835938 40.078125 9.933594 C 42.542969 8.027344 43.304688 4.800781 41.777344 2.722656 Z M 41.777344 2.722656 "/>
</clipPath>
<clipPath id="clip8">
  <path d="M 26.574219 5.140625 L 39.300781 -4.699219 L 48.109375 7.289062 L 35.382812 17.125 Z M 26.574219 5.140625 "/>
</clipPath>
<clipPath id="clip9">
  <path d="M 41.777344 2.722656 C 40.25 0.648438 37.015625 0.507812 34.554688 2.410156 C 32.089844 4.3125 31.332031 7.539062 32.855469 9.617188 C 34.382812 11.695312 37.617188 11.835938 40.078125 9.933594 C 42.542969 8.027344 43.304688 4.800781 41.777344 2.722656 Z M 41.777344 2.722656 "/>
</clipPath>
<clipPath id="clip10">
  <path d="M 31.390625 10.460938 L 34.46875 -0.539062 L 43.300781 2.058594 L 40.226562 13.0625 Z M 31.390625 10.460938 "/>
</clipPath>
<clipPath id="clip11">
  <path d="M 32.054688 1 L 42.582031 1 L 42.582031 11.292969 L 32.054688 11.292969 Z M 32.054688 1 "/>
</clipPath>
<clipPath id="clip12">
  <path d="M 41.777344 2.722656 C 40.25 0.648438 37.015625 0.507812 34.554688 2.410156 C 32.089844 4.3125 31.332031 7.539062 32.855469 9.617188 C 34.382812 11.695312 37.617188 11.835938 40.078125 9.933594 C 42.542969 8.027344 43.304688 4.800781 41.777344 2.722656 Z M 41.777344 2.722656 "/>
</clipPath>
<clipPath id="clip13">
  <path d="M 26.574219 5.140625 L 39.300781 -4.699219 L 48.109375 7.289062 L 35.382812 17.125 Z M 26.574219 5.140625 "/>
</clipPath>
<clipPath id="clip14">
  <path d="M 41.777344 2.722656 C 40.25 0.648438 37.015625 0.507812 34.554688 2.410156 C 32.089844 4.3125 31.332031 7.539062 32.855469 9.617188 C 34.382812 11.695312 37.617188 11.835938 40.078125 9.933594 C 42.542969 8.027344 43.304688 4.800781 41.777344 2.722656 Z M 41.777344 2.722656 "/>
</clipPath>
<clipPath id="clip15">
  <path d="M 30.117188 5.941406 L 39.03125 -0.949219 L 44.5625 6.582031 L 35.652344 13.46875 Z M 30.117188 5.941406 "/>
</clipPath>
<clipPath id="clip16">
  <path d="M 32.054688 1 L 42.582031 1 L 42.582031 11.292969 L 32.054688 11.292969 Z M 32.054688 1 "/>
</clipPath>
<clipPath id="clip17">
  <path d="M 41.777344 2.722656 C 40.25 0.648438 37.015625 0.507812 34.554688 2.410156 C 32.089844 4.3125 31.332031 7.539062 32.855469 9.617188 C 34.382812 11.695312 37.617188 11.835938 40.078125 9.933594 C 42.542969 8.027344 43.304688 4.800781 41.777344 2.722656 Z M 41.777344 2.722656 "/>
</clipPath>
<clipPath id="clip18">
  <path d="M 26.574219 5.140625 L 39.300781 -4.699219 L 48.109375 7.289062 L 35.382812 17.125 Z M 26.574219 5.140625 "/>
</clipPath>
<clipPath id="clip19">
  <path d="M 41.777344 2.722656 C 40.25 0.648438 37.015625 0.507812 34.554688 2.410156 C 32.089844 4.3125 31.332031 7.539062 32.855469 9.617188 C 34.382812 11.695312 37.617188 11.835938 40.078125 9.933594 C 42.542969 8.027344 43.304688 4.800781 41.777344 2.722656 Z M 41.777344 2.722656 "/>
</clipPath>
<clipPath id="clip20">
  <path d="M 31.390625 10.460938 L 34.46875 -0.539062 L 43.300781 2.058594 L 40.226562 13.0625 Z M 31.390625 10.460938 "/>
</clipPath>
<clipPath id="clip21">
  <path d="M 32.054688 1 L 42.582031 1 L 42.582031 11.292969 L 32.054688 11.292969 Z M 32.054688 1 "/>
</clipPath>
<clipPath id="clip22">
  <path d="M 41.777344 2.722656 C 40.25 0.648438 37.015625 0.507812 34.554688 2.410156 C 32.089844 4.3125 31.332031 7.539062 32.855469 9.617188 C 34.382812 11.695312 37.617188 11.835938 40.078125 9.933594 C 42.542969 8.027344 43.304688 4.800781 41.777344 2.722656 Z M 41.777344 2.722656 "/>
</clipPath>
<clipPath id="clip23">
  <path d="M 26.574219 5.140625 L 39.300781 -4.699219 L 48.109375 7.289062 L 35.382812 17.125 Z M 26.574219 5.140625 "/>
</clipPath>
<clipPath id="clip24">
  <path d="M 41.777344 2.722656 C 40.25 0.648438 37.015625 0.507812 34.554688 2.410156 C 32.089844 4.3125 31.332031 7.539062 32.855469 9.617188 C 34.382812 11.695312 37.617188 11.835938 40.078125 9.933594 C 42.542969 8.027344 43.304688 4.800781 41.777344 2.722656 Z M 41.777344 2.722656 "/>
</clipPath>
<clipPath id="clip25">
  <path d="M 32.054688 1 L 42.582031 1 L 42.582031 11.292969 L 32.054688 11.292969 Z M 32.054688 1 "/>
</clipPath>
<clipPath id="clip26">
  <path d="M 41.777344 2.722656 C 40.25 0.648438 37.015625 0.507812 34.554688 2.410156 C 32.089844 4.3125 31.332031 7.539062 32.855469 9.617188 C 34.382812 11.695312 37.617188 11.835938 40.078125 9.933594 C 42.542969 8.027344 43.304688 4.800781 41.777344 2.722656 Z M 41.777344 2.722656 "/>
</clipPath>
<clipPath id="clip27">
  <path d="M 26.574219 5.140625 L 39.300781 -4.699219 L 48.109375 7.289062 L 35.382812 17.125 Z M 26.574219 5.140625 "/>
</clipPath>
<clipPath id="clip28">
  <path d="M 34.65625 3.226562 L 40.335938 3.226562 L 40.335938 9.089844 L 34.65625 9.089844 Z M 34.65625 3.226562 "/>
</clipPath>
<clipPath id="clip29">
  <path d="M 41.777344 2.722656 C 40.25 0.648438 37.015625 0.507812 34.554688 2.410156 C 32.089844 4.3125 31.332031 7.539062 32.855469 9.617188 C 34.382812 11.695312 37.617188 11.835938 40.078125 9.933594 C 42.542969 8.027344 43.304688 4.800781 41.777344 2.722656 Z M 41.777344 2.722656 "/>
</clipPath>
<clipPath id="clip30">
  <path d="M 26.574219 5.140625 L 39.300781 -4.699219 L 48.109375 7.289062 L 35.382812 17.125 Z M 26.574219 5.140625 "/>
</clipPath>
</defs>
<g id="surface1">
<path style=" stroke:none;fill-rule:nonzero;fill:rgb(0%,0%,0%);fill-opacity:1;" d="M 25.34375 6.183594 L 27.671875 6.027344 C 27.726562 6.417969 27.824219 6.707031 27.980469 6.917969 C 28.242188 7.246094 28.59375 7.410156 29.0625 7.410156 C 29.410156 7.410156 29.683594 7.328125 29.871094 7.15625 C 30.050781 7.015625 30.15625 6.800781 30.15625 6.574219 C 30.15625 6.355469 30.058594 6.144531 29.886719 6.007812 C 29.710938 5.84375 29.296875 5.683594 28.636719 5.535156 C 27.566406 5.289062 26.792969 4.964844 26.34375 4.546875 C 25.890625 4.15625 25.632812 3.582031 25.652344 2.972656 C 25.652344 2.554688 25.777344 2.136719 26.007812 1.789062 C 26.269531 1.398438 26.636719 1.089844 27.070312 0.917969 C 27.539062 0.707031 28.195312 0.597656 29.019531 0.597656 C 30.03125 0.597656 30.800781 0.789062 31.335938 1.179688 C 31.867188 1.5625 32.183594 2.179688 32.28125 3.027344 L 29.976562 3.164062 C 29.914062 2.800781 29.789062 2.535156 29.585938 2.363281 C 29.382812 2.191406 29.117188 2.109375 28.773438 2.109375 C 28.488281 2.109375 28.273438 2.171875 28.132812 2.292969 C 28 2.402344 27.914062 2.5625 27.921875 2.746094 C 27.921875 2.882812 27.992188 3.007812 28.097656 3.089844 C 28.214844 3.199219 28.488281 3.300781 28.921875 3.390625 C 29.992188 3.625 30.757812 3.863281 31.226562 4.109375 C 31.695312 4.355469 32.03125 4.65625 32.234375 5.011719 C 32.449219 5.371094 32.554688 5.792969 32.546875 6.21875 C 32.546875 6.726562 32.40625 7.238281 32.121094 7.664062 C 31.828125 8.109375 31.421875 8.453125 30.941406 8.664062 C 30.4375 8.890625 29.796875 9.007812 29.035156 9.007812 C 27.691406 9.007812 26.761719 8.746094 26.238281 8.210938 C 25.710938 7.671875 25.402344 7 25.34375 6.183594 Z M 0.605469 8.871094 L 0.605469 0.746094 L 4.691406 0.746094 C 5.441406 0.746094 6.027344 0.808594 6.425781 0.945312 C 6.816406 1.070312 7.160156 1.335938 7.390625 1.691406 C 7.652344 2.082031 7.773438 2.535156 7.765625 3.007812 C 7.792969 3.808594 7.390625 4.574219 6.710938 4.972656 C 6.441406 5.128906 6.152344 5.238281 5.851562 5.289062 C 6.074219 5.355469 6.292969 5.464844 6.488281 5.589844 C 6.636719 5.71875 6.761719 5.863281 6.878906 6.019531 C 7.011719 6.171875 7.128906 6.34375 7.226562 6.527344 L 8.414062 8.882812 L 5.628906 8.882812 L 4.316406 6.382812 C 4.148438 6.0625 4.007812 5.851562 3.871094 5.753906 C 3.699219 5.628906 3.484375 5.5625 3.273438 5.5625 L 3.058594 5.5625 L 3.058594 8.863281 L 0.605469 8.863281 Z M 3.058594 4.035156 L 4.09375 4.035156 C 4.316406 4.015625 4.527344 3.980469 4.742188 3.925781 C 4.902344 3.898438 5.042969 3.808594 5.140625 3.671875 C 5.378906 3.34375 5.34375 2.882812 5.050781 2.601562 C 4.894531 2.460938 4.582031 2.390625 4.140625 2.390625 L 3.058594 2.390625 Z M 0.0429688 15.835938 L 2.375 15.679688 C 2.429688 16.074219 2.527344 16.363281 2.683594 16.574219 C 2.933594 16.898438 3.296875 17.074219 3.765625 17.074219 C 4.113281 17.074219 4.386719 16.992188 4.574219 16.816406 C 4.75 16.675781 4.859375 16.464844 4.859375 16.234375 C 4.859375 16.019531 4.761719 15.808594 4.59375 15.671875 C 4.414062 15.511719 3.996094 15.34375 3.332031 15.199219 C 2.261719 14.953125 1.488281 14.628906 1.039062 14.207031 C 0.585938 13.816406 0.328125 13.242188 0.34375 12.636719 C 0.34375 12.21875 0.46875 11.800781 0.699219 11.453125 C 0.964844 11.0625 1.328125 10.753906 1.765625 10.582031 C 2.234375 10.375 2.890625 10.265625 3.714844 10.265625 C 4.722656 10.265625 5.496094 10.457031 6.027344 10.847656 C 6.558594 11.238281 6.867188 11.847656 6.964844 12.691406 L 4.664062 12.828125 C 4.601562 12.460938 4.476562 12.199219 4.273438 12.027344 C 4.078125 11.855469 3.804688 11.773438 3.457031 11.78125 C 3.175781 11.78125 2.960938 11.847656 2.816406 11.972656 C 2.675781 12.082031 2.597656 12.246094 2.605469 12.425781 C 2.605469 12.5625 2.675781 12.691406 2.785156 12.773438 C 2.898438 12.882812 3.175781 12.984375 3.609375 13.074219 C 4.679688 13.308594 5.441406 13.542969 5.910156 13.789062 C 6.382812 14.035156 6.71875 14.335938 6.921875 14.691406 C 7.136719 15.054688 7.242188 15.472656 7.242188 15.890625 C 7.242188 16.398438 7.089844 16.898438 6.816406 17.324219 C 6.523438 17.773438 6.117188 18.117188 5.640625 18.328125 C 5.132812 18.554688 4.492188 18.671875 3.730469 18.671875 C 2.382812 18.671875 1.453125 18.410156 0.933594 17.871094 C 0.410156 17.324219 0.113281 16.652344 0.0429688 15.835938 Z M 0.0429688 15.835938 "/>
<path style=" stroke:none;fill-rule:nonzero;fill:rgb(0%,0%,0%);fill-opacity:1;" d="M 11.835938 15.199219 L 13.976562 15.863281 C 13.863281 16.417969 13.625 16.945312 13.296875 17.40625 C 12.996094 17.816406 12.59375 18.136719 12.144531 18.347656 C 11.683594 18.554688 11.097656 18.664062 10.386719 18.664062 C 9.527344 18.664062 8.820312 18.535156 8.28125 18.28125 C 7.730469 18.027344 7.257812 17.574219 6.859375 16.925781 C 6.460938 16.28125 6.269531 15.453125 6.269531 14.445312 C 6.269531 13.101562 6.613281 12.0625 7.3125 11.347656 C 8.011719 10.625 8.996094 10.265625 10.273438 10.265625 C 11.277344 10.265625 12.054688 10.472656 12.628906 10.882812 C 13.199219 11.296875 13.625 11.9375 13.90625 12.792969 L 11.746094 13.28125 C 11.691406 13.089844 11.613281 12.902344 11.507812 12.734375 C 11.375 12.542969 11.203125 12.402344 11 12.292969 C 10.796875 12.179688 10.566406 12.136719 10.335938 12.136719 C 9.777344 12.136719 9.351562 12.363281 9.058594 12.828125 C 8.839844 13.164062 8.722656 13.699219 8.722656 14.425781 C 8.722656 15.328125 8.855469 15.945312 9.121094 16.28125 C 9.386719 16.617188 9.757812 16.78125 10.246094 16.78125 C 10.714844 16.78125 11.070312 16.644531 11.3125 16.382812 C 11.550781 16.101562 11.726562 15.710938 11.835938 15.199219 Z M 16.839844 10.398438 L 19.289062 10.398438 L 19.289062 13.242188 L 21.964844 13.242188 L 21.964844 10.398438 L 24.429688 10.398438 L 24.429688 18.527344 L 21.964844 18.527344 L 21.964844 15.238281 L 19.289062 15.238281 L 19.289062 18.527344 L 16.839844 18.527344 Z M 16.839844 10.398438 "/>
<path style=" stroke:none;fill-rule:nonzero;fill:rgb(0%,0%,0%);fill-opacity:1;" d="M 24.09375 14.464844 C 24.09375 13.136719 24.453125 12.101562 25.171875 11.363281 C 25.890625 10.625 26.902344 10.253906 28.183594 10.253906 C 29.507812 10.253906 30.515625 10.617188 31.238281 11.347656 C 31.953125 12.070312 32.308594 13.089844 32.308594 14.398438 C 32.308594 15.355469 32.148438 16.128906 31.839844 16.734375 C 31.539062 17.335938 31.066406 17.828125 30.492188 18.15625 C 29.894531 18.488281 29.160156 18.664062 28.28125 18.664062 C 27.390625 18.664062 26.652344 18.519531 26.066406 18.226562 C 25.464844 17.917969 24.96875 17.4375 24.640625 16.84375 C 24.277344 16.210938 24.09375 15.417969 24.09375 14.464844 Z M 26.539062 14.472656 C 26.539062 15.289062 26.6875 15.882812 26.980469 16.242188 C 27.273438 16.601562 27.679688 16.78125 28.195312 16.78125 C 28.71875 16.78125 29.125 16.609375 29.417969 16.253906 C 29.710938 15.902344 29.851562 15.273438 29.851562 14.363281 C 29.851562 13.601562 29.703125 13.035156 29.402344 12.691406 C 29.101562 12.335938 28.691406 12.164062 28.175781 12.164062 C 27.726562 12.144531 27.292969 12.34375 26.988281 12.703125 C 26.6875 13.054688 26.539062 13.644531 26.539062 14.472656 Z M 34.816406 14.464844 C 34.816406 13.136719 35.179688 12.101562 35.898438 11.363281 C 36.613281 10.625 37.628906 10.253906 38.910156 10.253906 C 40.230469 10.253906 41.253906 10.617188 41.960938 11.347656 C 42.667969 12.070312 43.03125 13.089844 43.03125 14.398438 C 43.03125 15.355469 42.875 16.128906 42.5625 16.734375 C 42.261719 17.335938 41.792969 17.828125 41.214844 18.15625 C 40.625 18.488281 39.886719 18.664062 39.011719 18.664062 C 38.113281 18.664062 37.378906 18.519531 36.792969 18.226562 C 36.1875 17.917969 35.695312 17.4375 35.367188 16.84375 C 35.003906 16.210938 34.816406 15.417969 34.816406 14.464844 Z M 37.261719 14.472656 C 37.261719 15.289062 37.414062 15.882812 37.707031 16.242188 C 38 16.601562 38.40625 16.78125 38.921875 16.78125 C 39.445312 16.78125 39.851562 16.609375 40.140625 16.253906 C 40.4375 15.902344 40.578125 15.273438 40.578125 14.363281 C 40.578125 13.601562 40.425781 13.035156 40.125 12.691406 C 39.824219 12.335938 39.417969 12.164062 38.902344 12.164062 C 38.449219 12.144531 38.007812 12.34375 37.714844 12.703125 C 37.414062 13.054688 37.261719 13.644531 37.261719 14.472656 Z M 37.261719 14.472656 "/>
<path style=" stroke:none;fill-rule:nonzero;fill:rgb(0%,0%,0%);fill-opacity:1;" d="M 42.777344 10.398438 L 45.222656 10.398438 L 45.222656 16.527344 L 49.042969 16.527344 L 49.042969 18.527344 L 42.765625 18.527344 L 42.765625 10.398438 Z M 42.777344 10.398438 "/>
<path style=" stroke:none;fill-rule:nonzero;fill:rgb(100%,100%,100%);fill-opacity:1;" d="M 41.777344 2.722656 C 40.25 0.648438 37.015625 0.507812 34.554688 2.410156 C 32.089844 4.3125 31.332031 7.539062 32.855469 9.617188 C 34.382812 11.695312 37.617188 11.835938 40.078125 9.933594 C 42.542969 8.027344 43.304688 4.800781 41.777344 2.722656 Z M 41.777344 2.722656 "/>
<g clip-path="url(#clip1)" clip-rule="nonzero">
<g clip-path="url(#clip2)" clip-rule="nonzero">
<path style=" stroke:none;fill-rule:nonzero;fill:rgb(100%,100%,100%);fill-opacity:1;" d="M 26.574219 5.140625 L 39.300781 -4.699219 L 48.109375 7.289062 L 35.382812 17.125 Z M 26.574219 5.140625 "/>
<g clip-path="url(#clip3)" clip-rule="nonzero">
<path style=" stroke:none;fill-rule:nonzero;fill:rgb(100%,100%,100%);fill-opacity:1;" d="M 41.777344 2.722656 C 40.25 0.648438 37.015625 0.507812 34.554688 2.410156 C 32.089844 4.3125 31.332031 7.539062 32.855469 9.617188 C 34.382812 11.695312 37.617188 11.835938 40.078125 9.933594 C 42.542969 8.027344 43.304688 4.800781 41.777344 2.722656 Z M 41.777344 2.722656 "/>
<g clip-path="url(#clip4)" clip-rule="nonzero">
<path style=" stroke:none;fill-rule:nonzero;fill:rgb(100%,100%,100%);fill-opacity:1;" d="M 30.117188 5.941406 L 39.03125 -0.949219 L 44.5625 6.582031 L 35.652344 13.46875 Z M 30.117188 5.941406 "/>
<g clip-path="url(#clip5)" clip-rule="nonzero">
<path style="fill-rule:nonzero;fill:rgb(100%,100%,100%);fill-opacity:1;stroke-width:4;stroke-linecap:butt;stroke-linejoin:miter;stroke:rgb(0%,0%,0%);stroke-opacity:1;stroke-miterlimit:10;" d="M 483.517169 67.9039 C 483.487075 39.311625 455.275674 16.115098 420.508401 16.117355 C 385.705933 16.093089 357.517667 39.292514 357.486705 67.892582 C 357.490939 96.519173 385.702341 119.715699 420.469613 119.713443 C 455.297942 119.703393 483.521404 96.530491 483.517169 67.9039 Z M 483.517169 67.9039 " transform="matrix(0.0707866,-0.0547118,0.0533436,0.0726023,3.92856,24.246769)"/>
</g>
</g>
</g>
</g>
</g>
<g clip-path="url(#clip6)" clip-rule="nonzero">
<g clip-path="url(#clip7)" clip-rule="nonzero">
<g clip-path="url(#clip8)" clip-rule="nonzero">
<g clip-path="url(#clip9)" clip-rule="nonzero">
<g clip-path="url(#clip10)" clip-rule="nonzero">
<path style="fill:none;stroke-width:4;stroke-linecap:butt;stroke-linejoin:miter;stroke:rgb(0%,0%,0%);stroke-opacity:1;stroke-miterlimit:10;" d="M 357.770688 16.991356 L 483.70493 16.981719 L 483.686639 120.699833 L 357.813453 120.701676 Z M 357.770688 16.991356 " transform="matrix(0.0707876,-0.0547105,0.0533421,0.072603,3.885122,24.281596)"/>
</g>
</g>
</g>
</g>
</g>
<g clip-path="url(#clip11)" clip-rule="nonzero">
<g clip-path="url(#clip12)" clip-rule="nonzero">
<g clip-path="url(#clip13)" clip-rule="nonzero">
<g clip-path="url(#clip14)" clip-rule="nonzero">
<path style="fill:none;stroke-width:4;stroke-linecap:butt;stroke-linejoin:miter;stroke:rgb(0%,0%,0%);stroke-opacity:1;stroke-miterlimit:10;" d="M 483.517169 67.9039 C 483.487075 39.311625 455.275674 16.115098 420.508401 16.117355 C 385.705933 16.093089 357.517667 39.292514 357.486705 67.892582 C 357.490939 96.519173 385.702341 119.715699 420.469613 119.713443 C 455.297942 119.703393 483.521404 96.530491 483.517169 67.9039 Z M 483.517169 67.9039 " transform="matrix(0.0707866,-0.0547118,0.0533436,0.0726023,3.92856,24.246769)"/>
<path style=" stroke:none;fill-rule:nonzero;fill:rgb(100%,100%,100%);fill-opacity:1;" d="M 30.117188 5.941406 L 39.03125 -0.949219 L 44.5625 6.582031 L 35.652344 13.46875 Z M 30.117188 5.941406 "/>
<g clip-path="url(#clip15)" clip-rule="nonzero">
<path style="fill-rule:nonzero;fill:rgb(100%,100%,100%);fill-opacity:1;stroke-width:4;stroke-linecap:butt;stroke-linejoin:miter;stroke:rgb(0%,0%,0%);stroke-opacity:1;stroke-miterlimit:10;" d="M 483.517169 67.9039 C 483.487075 39.311625 455.275674 16.115098 420.508401 16.117355 C 385.705933 16.093089 357.517667 39.292514 357.486705 67.892582 C 357.490939 96.519173 385.702341 119.715699 420.469613 119.713443 C 455.297942 119.703393 483.521404 96.530491 483.517169 67.9039 Z M 483.517169 67.9039 " transform="matrix(0.0707866,-0.0547118,0.0533436,0.0726023,3.92856,24.246769)"/>
</g>
</g>
</g>
</g>
</g>
<g clip-path="url(#clip16)" clip-rule="nonzero">
<g clip-path="url(#clip17)" clip-rule="nonzero">
<g clip-path="url(#clip18)" clip-rule="nonzero">
<g clip-path="url(#clip19)" clip-rule="nonzero">
<g clip-path="url(#clip20)" clip-rule="nonzero">
<path style="fill:none;stroke-width:4;stroke-linecap:butt;stroke-linejoin:miter;stroke:rgb(0%,0%,0%);stroke-opacity:1;stroke-miterlimit:10;" d="M 357.770688 16.991356 L 483.70493 16.981719 L 483.686639 120.699833 L 357.813453 120.701676 Z M 357.770688 16.991356 " transform="matrix(0.0707876,-0.0547105,0.0533421,0.072603,3.885122,24.281596)"/>
</g>
</g>
</g>
</g>
</g>
<g clip-path="url(#clip21)" clip-rule="nonzero">
<g clip-path="url(#clip22)" clip-rule="nonzero">
<g clip-path="url(#clip23)" clip-rule="nonzero">
<g clip-path="url(#clip24)" clip-rule="nonzero">
<path style="fill:none;stroke-width:4;stroke-linecap:butt;stroke-linejoin:miter;stroke:rgb(0%,0%,0%);stroke-opacity:1;stroke-miterlimit:10;" d="M 330.883934 -14.204023 L 510.6937 -14.233342 L 510.697022 150.891747 L 330.913116 150.88675 Z M 330.883934 -14.204023 " transform="matrix(0.0707866,-0.0547118,0.0533436,0.0726023,3.909755,24.275124)"/>
</g>
</g>
</g>
</g>
<g clip-path="url(#clip25)" clip-rule="nonzero">
<g clip-path="url(#clip26)" clip-rule="nonzero">
<g clip-path="url(#clip27)" clip-rule="nonzero">
<path style="fill:none;stroke-width:4;stroke-linecap:butt;stroke-linejoin:miter;stroke:rgb(0%,0%,0%);stroke-opacity:1;stroke-miterlimit:10;" d="M 483.517169 67.9039 C 483.487075 39.311625 455.275674 16.115098 420.508401 16.117355 C 385.705933 16.093089 357.517667 39.292514 357.486705 67.892582 C 357.490939 96.519173 385.702341 119.715699 420.469613 119.713443 C 455.297942 119.703393 483.521404 96.530491 483.517169 67.9039 Z M 483.517169 67.9039 " transform="matrix(0.0707866,-0.0547118,0.0533436,0.0726023,3.92856,24.246769)"/>
</g>
</g>
</g>
<g clip-path="url(#clip28)" clip-rule="nonzero">
<g clip-path="url(#clip29)" clip-rule="nonzero">
<g clip-path="url(#clip30)" clip-rule="nonzero">
<path style=" stroke:none;fill-rule:nonzero;fill:rgb(0%,0%,0%);fill-opacity:1;" d="M 34.824219 5.570312 L 35.710938 4.9375 L 36.800781 6.527344 C 36.988281 6.78125 37.128906 7.054688 37.234375 7.355469 C 37.300781 7.582031 37.28125 7.828125 37.195312 8.046875 C 37.078125 8.320312 36.890625 8.546875 36.644531 8.710938 C 36.351562 8.917969 36.101562 9.035156 35.890625 9.070312 C 35.6875 9.109375 35.472656 9.070312 35.277344 8.980469 C 35.066406 8.871094 34.878906 8.71875 34.738281 8.519531 L 35.5 7.789062 C 35.558594 7.890625 35.640625 7.980469 35.730469 8.054688 C 35.792969 8.097656 35.859375 8.128906 35.941406 8.128906 C 36.003906 8.128906 36.066406 8.097656 36.109375 8.0625 C 36.199219 8.007812 36.261719 7.898438 36.253906 7.789062 C 36.226562 7.636719 36.164062 7.480469 36.066406 7.363281 Z M 37.484375 6.582031 L 38.292969 5.925781 C 38.378906 6.035156 38.496094 6.117188 38.617188 6.164062 C 38.796875 6.21875 38.980469 6.183594 39.132812 6.0625 C 39.238281 5.992188 39.328125 5.890625 39.363281 5.761719 C 39.417969 5.601562 39.328125 5.417969 39.167969 5.363281 C 39.140625 5.355469 39.117188 5.34375 39.089844 5.34375 C 38.980469 5.335938 38.796875 5.378906 38.519531 5.5 C 38.070312 5.691406 37.714844 5.761719 37.449219 5.734375 C 37.195312 5.710938 36.953125 5.570312 36.8125 5.34375 C 36.703125 5.191406 36.652344 5.011719 36.644531 4.828125 C 36.644531 4.617188 36.695312 4.410156 36.8125 4.238281 C 36.980469 3.988281 37.183594 3.78125 37.433594 3.617188 C 37.804688 3.355469 38.132812 3.226562 38.414062 3.226562 C 38.699219 3.226562 38.964844 3.363281 39.214844 3.644531 L 38.414062 4.289062 C 38.257812 4.082031 37.957031 4.035156 37.75 4.199219 L 37.726562 4.226562 C 37.636719 4.28125 37.574219 4.363281 37.539062 4.464844 C 37.511719 4.539062 37.53125 4.617188 37.574219 4.679688 C 37.609375 4.726562 37.660156 4.761719 37.726562 4.761719 C 37.792969 4.773438 37.917969 4.738281 38.097656 4.65625 C 38.539062 4.464844 38.875 4.355469 39.109375 4.316406 C 39.300781 4.28125 39.503906 4.300781 39.691406 4.382812 C 39.859375 4.457031 40 4.582031 40.101562 4.738281 C 40.222656 4.917969 40.296875 5.136719 40.304688 5.363281 C 40.3125 5.601562 40.25 5.828125 40.125 6.027344 C 39.96875 6.273438 39.761719 6.484375 39.523438 6.644531 C 39.035156 6.992188 38.636719 7.136719 38.316406 7.082031 C 37.972656 7.027344 37.6875 6.84375 37.484375 6.582031 Z M 37.484375 6.582031 "/>
</g>
</g>
</g>
</g>
</svg>
